#VRML V2.0 utf8
# freewrl-landing.wrl — the FreeWRL mark in a small world: a plaza, a dial, a tower,
# a portal, a fan of fins, a mast and a skyline. Every shape is VRML97 you can read.
# Generated by scripts/gen-landing-world.mjs for freewrl.org.
# Try: change the Gyro ring's rotation, or ACCENT_MAGENTA's diffuseColor.

WorldInfo { title "FreeWRL landing world" info [ "freewrl.org landing world" ] }
NavigationInfo { type [ "EXAMINE" "ANY" ] headlight FALSE }
Background {
  skyColor [ 0.012 0.018 0.06, 0.03 0.05 0.17, 0.08 0.14 0.42, 0.16 0.3 0.66 ]
  skyAngle [ 0.9, 1.35, 1.5708 ]
  groundColor [ 0.02 0.03 0.09, 0.02 0.03 0.09 ]
  groundAngle [ 1.5708 ]
}
DEF Hero Viewpoint { description "Plaza" position -3.4 -2.1 21.5 orientation 0.26 -0.965 0.026 0.209 fieldOfView 0.8 }
DEF Near Viewpoint { description "Under the tower" position -10.2 -3.4 16 orientation 0.555 -0.827 0.089 0.384 fieldOfView 0.95 }
DEF Portal Viewpoint { description "Through the portal" position 15.5 -6.2 21 orientation 0.386 0.914 -0.127 0.691 fieldOfView 0.78 }
DEF Plan Viewpoint { description "From above" position 6 26 26 orientation -0.968 0.229 0.103 0.865 fieldOfView 0.8 }
DirectionalLight { direction 0.45 -0.55 -0.7 color 1 0.97 0.92 intensity 0.85 ambientIntensity 0.5 }
DirectionalLight { direction -0.6 -0.2 0.75 color 0.55 0.75 1 intensity 0.35 }

DEF Hand Transform { # the FreeWRL mark: eye at the origin, five fingers around it
  children [
    Transform { # eyeball, flattened so the iris sits on its face
      scale 1 1 0.62
      children Shape {
        appearance Appearance { material Material { diffuseColor 0.62 0.76 0.95 emissiveColor 0.12 0.16 0.24 specularColor 1 1 1 shininess 0.8 } }
        geometry Sphere { radius 1.15 }
      }
    }
    Transform { # iris
      translation 0 0 0.735 rotation 1 0 0 1.5708
      children Shape {
        appearance Appearance { material DEF Iris Material { diffuseColor 0.04 0.28 0.85 emissiveColor 0.02 0.14 0.48 specularColor 0.25 0.3 0.4 shininess 0.3 } }
        geometry Cylinder { radius 0.64 height 0.06 }
      }
    }
    Transform { # pupil
      translation 0 0 0.775 rotation 1 0 0 1.5708
      children Shape {
        appearance Appearance { material Material { diffuseColor 0 0 0 specularColor 0.15 0.15 0.15 shininess 0.5 } }
        geometry Cylinder { radius 0.3 height 0.04 }
      }
    }
    Transform { # catch-light
      translation -0.26 0.28 0.8
      children Shape { appearance Appearance { material Material { diffuseColor 1 1 1 emissiveColor 0.9 0.95 1 } } geometry Sphere { radius 0.08 } }
    }
    Transform { # the five fingers
      children [
        Shape { appearance DEF Glass Appearance { material Material { diffuseColor 0.1 0.62 1 emissiveColor 0.04 0.4 0.78 specularColor 0.9 0.97 1 shininess 0.7 } } }
      Transform { # finger 1
        translation -2.396 0.509 0
        rotation 0 0 1 1.361
        children [
          Shape { appearance USE Glass geometry Cylinder { radius 0.3 height 2.2 top FALSE bottom FALSE } }
          Transform { translation 0 1.1 0 children Shape { appearance USE Glass geometry Sphere { radius 0.3 } } }
          Transform { translation 0 -1.1 0 children Shape { appearance USE Glass geometry Sphere { radius 0.3 } } }
        ]
      }
      Transform { # finger 2
        translation -1.685 2.236 0
        rotation 0 0 1 0.646
        children [
          Shape { appearance USE Glass geometry Cylinder { radius 0.3 height 2.7 top FALSE bottom FALSE } }
          Transform { translation 0 1.35 0 children Shape { appearance USE Glass geometry Sphere { radius 0.3 } } }
          Transform { translation 0 -1.35 0 children Shape { appearance USE Glass geometry Sphere { radius 0.3 } } }
        ]
      }
      Transform { # finger 3
        translation -0.157 2.996 0
        rotation 0 0 1 0.052
        children [
          Shape { appearance USE Glass geometry Cylinder { radius 0.3 height 3.1 top FALSE bottom FALSE } }
          Transform { translation 0 1.55 0 children Shape { appearance USE Glass geometry Sphere { radius 0.3 } } }
          Transform { translation 0 -1.55 0 children Shape { appearance USE Glass geometry Sphere { radius 0.3 } } }
        ]
      }
      Transform { # finger 4
        translation 1.338 2.516 0
        rotation 0 0 1 -0.489
        children [
          Shape { appearance USE Glass geometry Cylinder { radius 0.3 height 2.8 top FALSE bottom FALSE } }
          Transform { translation 0 1.4 0 children Shape { appearance USE Glass geometry Sphere { radius 0.3 } } }
          Transform { translation 0 -1.4 0 children Shape { appearance USE Glass geometry Sphere { radius 0.3 } } }
        ]
      }
      Transform { # finger 5
        translation 2.139 1.389 0
        rotation 0 0 1 -0.995
        children [
          Shape { appearance USE Glass geometry Cylinder { radius 0.3 height 2.3 top FALSE bottom FALSE } }
          Transform { translation 0 1.15 0 children Shape { appearance USE Glass geometry Sphere { radius 0.3 } } }
          Transform { translation 0 -1.15 0 children Shape { appearance USE Glass geometry Sphere { radius 0.3 } } }
        ]
      }
      ]
    }
  ]
}

Transform { # the dial: an open gold ring around the mark, with tick marks
  children [
    Shape { appearance DEF ANNOTATION_GOLD Appearance { material Material { diffuseColor 0.95 0.74 0.16 emissiveColor 0.42 0.3 0.04 specularColor 1 0.9 0.6 shininess 0.5 ambientIntensity 0.5 } } geometry IndexedFaceSet { solid FALSE creaseAngle 0.6
      coord Coordinate { point [ 1.372 -5.944 0.16, 1.444 -6.255 0.16, 1.372 -5.944 -0.16, 1.444 -6.255 -0.16, 1.942 -5.783 0.16, 2.044 -6.086 0.16, 1.942 -5.783 -0.16, 2.044 -6.086 -0.16, 2.494 -5.567 0.16, 2.625 -5.859 0.16, 2.494 -5.567 -0.16, 2.625 -5.859 -0.16, 3.022 -5.299 0.16, 3.181 -5.577 0.16, 3.022 -5.299 -0.16, 3.181 -5.577 -0.16, 3.522 -4.98 0.16, 3.707 -5.242 0.16, 3.522 -4.98 -0.16, 3.707 -5.242 -0.16, 3.989 -4.615 0.16, 4.198 -4.857 0.16, 3.989 -4.615 -0.16, 4.198 -4.857 -0.16, 4.417 -4.207 0.16, 4.649 -4.427 0.16, 4.417 -4.207 -0.16, 4.649 -4.427 -0.16, 4.805 -3.758 0.16, 5.057 -3.955 0.16, 4.805 -3.758 -0.16, 5.057 -3.955 -0.16, 5.147 -3.275 0.16, 5.417 -3.446 0.16, 5.147 -3.275 -0.16, 5.417 -3.446 -0.16, 5.44 -2.76 0.16, 5.725 -2.905 0.16, 5.44 -2.76 -0.16, 5.725 -2.905 -0.16, 5.682 -2.219 0.16, 5.98 -2.336 0.16, 5.682 -2.219 -0.16, 5.98 -2.336 -0.16, 5.87 -1.657 0.16, 6.178 -1.744 0.16, 5.87 -1.657 -0.16, 6.178 -1.744 -0.16, 6.004 -1.08 0.16, 6.319 -1.137 0.16, 6.004 -1.08 -0.16, 6.319 -1.137 -0.16, 6.08 -0.493 0.16, 6.399 -0.519 0.16, 6.08 -0.493 -0.16, 6.399 -0.519 -0.16, 6.099 0.099 0.16, 6.419 0.105 0.16, 6.099 0.099 -0.16, 6.419 0.105 -0.16, 6.061 0.691 0.16, 6.379 0.727 0.16, 6.061 0.691 -0.16, 6.379 0.727 -0.16, 5.965 1.275 0.16, 6.278 1.342 0.16, 5.965 1.275 -0.16, 6.278 1.342 -0.16, 5.813 1.848 0.16, 6.118 1.945 0.16, 5.813 1.848 -0.16, 6.118 1.945 -0.16, 5.607 2.403 0.16, 5.901 2.529 0.16, 5.607 2.403 -0.16, 5.901 2.529 -0.16, 5.347 2.936 0.16, 5.628 3.09 0.16, 5.347 2.936 -0.16, 5.628 3.09 -0.16, 5.037 3.44 0.16, 5.301 3.621 0.16, 5.037 3.44 -0.16, 5.301 3.621 -0.16, 4.68 3.913 0.16, 4.925 4.118 0.16, 4.68 3.913 -0.16, 4.925 4.118 -0.16, 4.278 4.348 0.16, 4.503 4.576 0.16, 4.278 4.348 -0.16, 4.503 4.576 -0.16, 3.836 4.743 0.16, 4.037 4.992 0.16, 3.836 4.743 -0.16, 4.037 4.992 -0.16, 3.358 5.093 0.16, 3.534 5.36 0.16, 3.358 5.093 -0.16, 3.534 5.36 -0.16, 2.848 5.394 0.16, 2.998 5.677 0.16, 2.848 5.394 -0.16, 2.998 5.677 -0.16, 2.311 5.645 0.16, 2.433 5.941 0.16, 2.311 5.645 -0.16, 2.433 5.941 -0.16, 1.753 5.843 0.16, 1.845 6.149 0.16, 1.753 5.843 -0.16, 1.845 6.149 -0.16, 1.178 5.985 0.16, 1.24 6.299 0.16, 1.178 5.985 -0.16, 1.24 6.299 -0.16, 0.592 6.071 0.16, 0.623 6.39 0.16, 0.592 6.071 -0.16, 0.623 6.39 -0.16, 0 6.1 0.16, 0 6.42 0.16, 0 6.1 -0.16, 0 6.42 -0.16, -0.592 6.071 0.16, -0.623 6.39 0.16, -0.592 6.071 -0.16, -0.623 6.39 -0.16, -1.178 5.985 0.16, -1.24 6.299 0.16, -1.178 5.985 -0.16, -1.24 6.299 -0.16, -1.753 5.843 0.16, -1.845 6.149 0.16, -1.753 5.843 -0.16, -1.845 6.149 -0.16, -2.311 5.645 0.16, -2.433 5.941 0.16, -2.311 5.645 -0.16, -2.433 5.941 -0.16, -2.848 5.394 0.16, -2.998 5.677 0.16, -2.848 5.394 -0.16, -2.998 5.677 -0.16, -3.358 5.093 0.16, -3.534 5.36 0.16, -3.358 5.093 -0.16, -3.534 5.36 -0.16, -3.836 4.743 0.16, -4.037 4.992 0.16, -3.836 4.743 -0.16, -4.037 4.992 -0.16, -4.278 4.348 0.16, -4.503 4.576 0.16, -4.278 4.348 -0.16, -4.503 4.576 -0.16, -4.68 3.913 0.16, -4.925 4.118 0.16, -4.68 3.913 -0.16, -4.925 4.118 -0.16, -5.037 3.44 0.16, -5.301 3.621 0.16, -5.037 3.44 -0.16, -5.301 3.621 -0.16, -5.347 2.936 0.16, -5.628 3.09 0.16, -5.347 2.936 -0.16, -5.628 3.09 -0.16, -5.607 2.403 0.16, -5.901 2.529 0.16, -5.607 2.403 -0.16, -5.901 2.529 -0.16, -5.813 1.848 0.16, -6.118 1.945 0.16, -5.813 1.848 -0.16, -6.118 1.945 -0.16, -5.965 1.275 0.16, -6.278 1.342 0.16, -5.965 1.275 -0.16, -6.278 1.342 -0.16, -6.061 0.691 0.16, -6.379 0.727 0.16, -6.061 0.691 -0.16, -6.379 0.727 -0.16, -6.099 0.099 0.16, -6.419 0.105 0.16, -6.099 0.099 -0.16, -6.419 0.105 -0.16, -6.08 -0.493 0.16, -6.399 -0.519 0.16, -6.08 -0.493 -0.16, -6.399 -0.519 -0.16, -6.004 -1.08 0.16, -6.319 -1.137 0.16, -6.004 -1.08 -0.16, -6.319 -1.137 -0.16, -5.87 -1.657 0.16, -6.178 -1.744 0.16, -5.87 -1.657 -0.16, -6.178 -1.744 -0.16, -5.682 -2.219 0.16, -5.98 -2.336 0.16, -5.682 -2.219 -0.16, -5.98 -2.336 -0.16, -5.44 -2.76 0.16, -5.725 -2.905 0.16, -5.44 -2.76 -0.16, -5.725 -2.905 -0.16, -5.147 -3.275 0.16, -5.417 -3.446 0.16, -5.147 -3.275 -0.16, -5.417 -3.446 -0.16, -4.805 -3.758 0.16, -5.057 -3.955 0.16, -4.805 -3.758 -0.16, -5.057 -3.955 -0.16, -4.417 -4.207 0.16, -4.649 -4.427 0.16, -4.417 -4.207 -0.16, -4.649 -4.427 -0.16, -3.989 -4.615 0.16, -4.198 -4.857 0.16, -3.989 -4.615 -0.16, -4.198 -4.857 -0.16, -3.522 -4.98 0.16, -3.707 -5.242 0.16, -3.522 -4.98 -0.16, -3.707 -5.242 -0.16, -3.022 -5.299 0.16, -3.181 -5.577 0.16, -3.022 -5.299 -0.16, -3.181 -5.577 -0.16, -2.494 -5.567 0.16, -2.625 -5.859 0.16, -2.494 -5.567 -0.16, -2.625 -5.859 -0.16, -1.942 -5.783 0.16, -2.044 -6.086 0.16, -1.942 -5.783 -0.16, -2.044 -6.086 -0.16, -1.372 -5.944 0.16, -1.444 -6.255 0.16, -1.372 -5.944 -0.16, -1.444 -6.255 -0.16 ] }
      coordIndex [ 0 1 5 4 -1 2 6 7 3 -1 1 3 7 5 -1 0 4 6 2 -1 4 5 9 8 -1 6 10 11 7 -1 5 7 11 9 -1 4 8 10 6 -1 8 9 13 12 -1 10 14 15 11 -1 9 11 15 13 -1 8 12 14 10 -1 12 13 17 16 -1 14 18 19 15 -1 13 15 19 17 -1 12 16 18 14 -1 16 17 21 20 -1 18 22 23 19 -1 17 19 23 21 -1 16 20 22 18 -1 20 21 25 24 -1 22 26 27 23 -1 21 23 27 25 -1 20 24 26 22 -1 24 25 29 28 -1 26 30 31 27 -1 25 27 31 29 -1 24 28 30 26 -1 28 29 33 32 -1 30 34 35 31 -1 29 31 35 33 -1 28 32 34 30 -1 32 33 37 36 -1 34 38 39 35 -1 33 35 39 37 -1 32 36 38 34 -1 36 37 41 40 -1 38 42 43 39 -1 37 39 43 41 -1 36 40 42 38 -1 40 41 45 44 -1 42 46 47 43 -1 41 43 47 45 -1 40 44 46 42 -1 44 45 49 48 -1 46 50 51 47 -1 45 47 51 49 -1 44 48 50 46 -1 48 49 53 52 -1 50 54 55 51 -1 49 51 55 53 -1 48 52 54 50 -1 52 53 57 56 -1 54 58 59 55 -1 53 55 59 57 -1 52 56 58 54 -1 56 57 61 60 -1 58 62 63 59 -1 57 59 63 61 -1 56 60 62 58 -1 60 61 65 64 -1 62 66 67 63 -1 61 63 67 65 -1 60 64 66 62 -1 64 65 69 68 -1 66 70 71 67 -1 65 67 71 69 -1 64 68 70 66 -1 68 69 73 72 -1 70 74 75 71 -1 69 71 75 73 -1 68 72 74 70 -1 72 73 77 76 -1 74 78 79 75 -1 73 75 79 77 -1 72 76 78 74 -1 76 77 81 80 -1 78 82 83 79 -1 77 79 83 81 -1 76 80 82 78 -1 80 81 85 84 -1 82 86 87 83 -1 81 83 87 85 -1 80 84 86 82 -1 84 85 89 88 -1 86 90 91 87 -1 85 87 91 89 -1 84 88 90 86 -1 88 89 93 92 -1 90 94 95 91 -1 89 91 95 93 -1 88 92 94 90 -1 92 93 97 96 -1 94 98 99 95 -1 93 95 99 97 -1 92 96 98 94 -1 96 97 101 100 -1 98 102 103 99 -1 97 99 103 101 -1 96 100 102 98 -1 100 101 105 104 -1 102 106 107 103 -1 101 103 107 105 -1 100 104 106 102 -1 104 105 109 108 -1 106 110 111 107 -1 105 107 111 109 -1 104 108 110 106 -1 108 109 113 112 -1 110 114 115 111 -1 109 111 115 113 -1 108 112 114 110 -1 112 113 117 116 -1 114 118 119 115 -1 113 115 119 117 -1 112 116 118 114 -1 116 117 121 120 -1 118 122 123 119 -1 117 119 123 121 -1 116 120 122 118 -1 120 121 125 124 -1 122 126 127 123 -1 121 123 127 125 -1 120 124 126 122 -1 124 125 129 128 -1 126 130 131 127 -1 125 127 131 129 -1 124 128 130 126 -1 128 129 133 132 -1 130 134 135 131 -1 129 131 135 133 -1 128 132 134 130 -1 132 133 137 136 -1 134 138 139 135 -1 133 135 139 137 -1 132 136 138 134 -1 136 137 141 140 -1 138 142 143 139 -1 137 139 143 141 -1 136 140 142 138 -1 140 141 145 144 -1 142 146 147 143 -1 141 143 147 145 -1 140 144 146 142 -1 144 145 149 148 -1 146 150 151 147 -1 145 147 151 149 -1 144 148 150 146 -1 148 149 153 152 -1 150 154 155 151 -1 149 151 155 153 -1 148 152 154 150 -1 152 153 157 156 -1 154 158 159 155 -1 153 155 159 157 -1 152 156 158 154 -1 156 157 161 160 -1 158 162 163 159 -1 157 159 163 161 -1 156 160 162 158 -1 160 161 165 164 -1 162 166 167 163 -1 161 163 167 165 -1 160 164 166 162 -1 164 165 169 168 -1 166 170 171 167 -1 165 167 171 169 -1 164 168 170 166 -1 168 169 173 172 -1 170 174 175 171 -1 169 171 175 173 -1 168 172 174 170 -1 172 173 177 176 -1 174 178 179 175 -1 173 175 179 177 -1 172 176 178 174 -1 176 177 181 180 -1 178 182 183 179 -1 177 179 183 181 -1 176 180 182 178 -1 180 181 185 184 -1 182 186 187 183 -1 181 183 187 185 -1 180 184 186 182 -1 184 185 189 188 -1 186 190 191 187 -1 185 187 191 189 -1 184 188 190 186 -1 188 189 193 192 -1 190 194 195 191 -1 189 191 195 193 -1 188 192 194 190 -1 192 193 197 196 -1 194 198 199 195 -1 193 195 199 197 -1 192 196 198 194 -1 196 197 201 200 -1 198 202 203 199 -1 197 199 203 201 -1 196 200 202 198 -1 200 201 205 204 -1 202 206 207 203 -1 201 203 207 205 -1 200 204 206 202 -1 204 205 209 208 -1 206 210 211 207 -1 205 207 211 209 -1 204 208 210 206 -1 208 209 213 212 -1 210 214 215 211 -1 209 211 215 213 -1 208 212 214 210 -1 212 213 217 216 -1 214 218 219 215 -1 213 215 219 217 -1 212 216 218 214 -1 216 217 221 220 -1 218 222 223 219 -1 217 219 223 221 -1 216 220 222 218 -1 220 221 225 224 -1 222 226 227 223 -1 221 223 227 225 -1 220 224 226 222 -1 224 225 229 228 -1 226 230 231 227 -1 225 227 231 229 -1 224 228 230 226 -1 228 229 233 232 -1 230 234 235 231 -1 229 231 235 233 -1 228 232 234 230 -1 232 233 237 236 -1 234 238 239 235 -1 233 235 239 237 -1 232 236 238 234 -1 236 237 241 240 -1 238 242 243 239 -1 237 239 243 241 -1 236 240 242 238 -1 0 2 3 1 -1 240 241 243 242 -1 ] } }
    Shape { appearance DEF LINE_GOLD Appearance { material Material { emissiveColor 0.95 0.74 0.2 } } geometry IndexedLineSet {
      coord Coordinate { point [ 6.55 0 0, 7.35 0 0, 6.327 1.695 0, 6.617 1.773 0, 5.672 3.275 0, 5.932 3.425 0, 4.632 4.632 0, 4.844 4.844 0, 3.275 5.672 0, 3.425 5.932 0, 1.695 6.327 0, 1.773 6.617 0, 0 6.55 0, 0 7.35 0, -1.695 6.327 0, -1.773 6.617 0, -3.275 5.672 0, -3.425 5.932 0, -4.632 4.632 0, -4.844 4.844 0, -5.672 3.275 0, -5.932 3.425 0, -6.327 1.695 0, -6.617 1.773 0, -6.55 0 0, -7.35 0 0, -6.327 -1.695 0, -6.617 -1.773 0, -5.672 -3.275 0, -5.932 -3.425 0, -4.632 -4.632 0, -4.844 -4.844 0, -3.275 -5.672 0, -3.425 -5.932 0, -1.695 -6.327 0, -1.773 -6.617 0, 0 -6.55 0, 0 -7.35 0, 1.695 -6.327 0, 1.773 -6.617 0, 3.275 -5.672 0, 3.425 -5.932 0, 4.632 -4.632 0, 4.844 -4.844 0, 5.672 -3.275 0, 5.932 -3.425 0, 6.327 -1.695 0, 6.617 -1.773 0 ] }
      coordIndex [ 0 1 -1 2 3 -1 4 5 -1 6 7 -1 8 9 -1 10 11 -1 12 13 -1 14 15 -1 16 17 -1 18 19 -1 20 21 -1 22 23 -1 24 25 -1 26 27 -1 28 29 -1 30 31 -1 32 33 -1 34 35 -1 36 37 -1 38 39 -1 40 41 -1 42 43 -1 44 45 -1 46 47 -1 ] } }
  ]
}
DEF Gyro Transform { # a thin cyan ring that turns slowly through the dial
  children Transform { rotation 1 0 0 1.0472 children Shape { appearance DEF FREEWRL_CYAN Appearance { material Material { diffuseColor 0.18 0.77 1 emissiveColor 0.1 0.55 0.85 ambientIntensity 0.4 } } geometry IndexedFaceSet { solid FALSE creaseAngle 0.6
      coord Coordinate { point [ 5.2 0 0.05, 5.34 0 0.05, 5.2 0 -0.05, 5.34 0 -0.05, 5.136 0.813 0.05, 5.274 0.835 0.05, 5.136 0.813 -0.05, 5.274 0.835 -0.05, 4.945 1.607 0.05, 5.079 1.65 0.05, 4.945 1.607 -0.05, 5.079 1.65 -0.05, 4.633 2.361 0.05, 4.758 2.424 0.05, 4.633 2.361 -0.05, 4.758 2.424 -0.05, 4.207 3.056 0.05, 4.32 3.139 0.05, 4.207 3.056 -0.05, 4.32 3.139 -0.05, 3.677 3.677 0.05, 3.776 3.776 0.05, 3.677 3.677 -0.05, 3.776 3.776 -0.05, 3.056 4.207 0.05, 3.139 4.32 0.05, 3.056 4.207 -0.05, 3.139 4.32 -0.05, 2.361 4.633 0.05, 2.424 4.758 0.05, 2.361 4.633 -0.05, 2.424 4.758 -0.05, 1.607 4.945 0.05, 1.65 5.079 0.05, 1.607 4.945 -0.05, 1.65 5.079 -0.05, 0.813 5.136 0.05, 0.835 5.274 0.05, 0.813 5.136 -0.05, 0.835 5.274 -0.05, 0 5.2 0.05, 0 5.34 0.05, 0 5.2 -0.05, 0 5.34 -0.05, -0.813 5.136 0.05, -0.835 5.274 0.05, -0.813 5.136 -0.05, -0.835 5.274 -0.05, -1.607 4.945 0.05, -1.65 5.079 0.05, -1.607 4.945 -0.05, -1.65 5.079 -0.05, -2.361 4.633 0.05, -2.424 4.758 0.05, -2.361 4.633 -0.05, -2.424 4.758 -0.05, -3.056 4.207 0.05, -3.139 4.32 0.05, -3.056 4.207 -0.05, -3.139 4.32 -0.05, -3.677 3.677 0.05, -3.776 3.776 0.05, -3.677 3.677 -0.05, -3.776 3.776 -0.05, -4.207 3.056 0.05, -4.32 3.139 0.05, -4.207 3.056 -0.05, -4.32 3.139 -0.05, -4.633 2.361 0.05, -4.758 2.424 0.05, -4.633 2.361 -0.05, -4.758 2.424 -0.05, -4.945 1.607 0.05, -5.079 1.65 0.05, -4.945 1.607 -0.05, -5.079 1.65 -0.05, -5.136 0.813 0.05, -5.274 0.835 0.05, -5.136 0.813 -0.05, -5.274 0.835 -0.05, -5.2 0 0.05, -5.34 0 0.05, -5.2 0 -0.05, -5.34 0 -0.05, -5.136 -0.813 0.05, -5.274 -0.835 0.05, -5.136 -0.813 -0.05, -5.274 -0.835 -0.05, -4.945 -1.607 0.05, -5.079 -1.65 0.05, -4.945 -1.607 -0.05, -5.079 -1.65 -0.05, -4.633 -2.361 0.05, -4.758 -2.424 0.05, -4.633 -2.361 -0.05, -4.758 -2.424 -0.05, -4.207 -3.056 0.05, -4.32 -3.139 0.05, -4.207 -3.056 -0.05, -4.32 -3.139 -0.05, -3.677 -3.677 0.05, -3.776 -3.776 0.05, -3.677 -3.677 -0.05, -3.776 -3.776 -0.05, -3.056 -4.207 0.05, -3.139 -4.32 0.05, -3.056 -4.207 -0.05, -3.139 -4.32 -0.05, -2.361 -4.633 0.05, -2.424 -4.758 0.05, -2.361 -4.633 -0.05, -2.424 -4.758 -0.05, -1.607 -4.945 0.05, -1.65 -5.079 0.05, -1.607 -4.945 -0.05, -1.65 -5.079 -0.05, -0.813 -5.136 0.05, -0.835 -5.274 0.05, -0.813 -5.136 -0.05, -0.835 -5.274 -0.05, 0 -5.2 0.05, 0 -5.34 0.05, 0 -5.2 -0.05, 0 -5.34 -0.05, 0.813 -5.136 0.05, 0.835 -5.274 0.05, 0.813 -5.136 -0.05, 0.835 -5.274 -0.05, 1.607 -4.945 0.05, 1.65 -5.079 0.05, 1.607 -4.945 -0.05, 1.65 -5.079 -0.05, 2.361 -4.633 0.05, 2.424 -4.758 0.05, 2.361 -4.633 -0.05, 2.424 -4.758 -0.05, 3.056 -4.207 0.05, 3.139 -4.32 0.05, 3.056 -4.207 -0.05, 3.139 -4.32 -0.05, 3.677 -3.677 0.05, 3.776 -3.776 0.05, 3.677 -3.677 -0.05, 3.776 -3.776 -0.05, 4.207 -3.056 0.05, 4.32 -3.139 0.05, 4.207 -3.056 -0.05, 4.32 -3.139 -0.05, 4.633 -2.361 0.05, 4.758 -2.424 0.05, 4.633 -2.361 -0.05, 4.758 -2.424 -0.05, 4.945 -1.607 0.05, 5.079 -1.65 0.05, 4.945 -1.607 -0.05, 5.079 -1.65 -0.05, 5.136 -0.813 0.05, 5.274 -0.835 0.05, 5.136 -0.813 -0.05, 5.274 -0.835 -0.05 ] }
      coordIndex [ 0 1 5 4 -1 2 6 7 3 -1 1 3 7 5 -1 0 4 6 2 -1 4 5 9 8 -1 6 10 11 7 -1 5 7 11 9 -1 4 8 10 6 -1 8 9 13 12 -1 10 14 15 11 -1 9 11 15 13 -1 8 12 14 10 -1 12 13 17 16 -1 14 18 19 15 -1 13 15 19 17 -1 12 16 18 14 -1 16 17 21 20 -1 18 22 23 19 -1 17 19 23 21 -1 16 20 22 18 -1 20 21 25 24 -1 22 26 27 23 -1 21 23 27 25 -1 20 24 26 22 -1 24 25 29 28 -1 26 30 31 27 -1 25 27 31 29 -1 24 28 30 26 -1 28 29 33 32 -1 30 34 35 31 -1 29 31 35 33 -1 28 32 34 30 -1 32 33 37 36 -1 34 38 39 35 -1 33 35 39 37 -1 32 36 38 34 -1 36 37 41 40 -1 38 42 43 39 -1 37 39 43 41 -1 36 40 42 38 -1 40 41 45 44 -1 42 46 47 43 -1 41 43 47 45 -1 40 44 46 42 -1 44 45 49 48 -1 46 50 51 47 -1 45 47 51 49 -1 44 48 50 46 -1 48 49 53 52 -1 50 54 55 51 -1 49 51 55 53 -1 48 52 54 50 -1 52 53 57 56 -1 54 58 59 55 -1 53 55 59 57 -1 52 56 58 54 -1 56 57 61 60 -1 58 62 63 59 -1 57 59 63 61 -1 56 60 62 58 -1 60 61 65 64 -1 62 66 67 63 -1 61 63 67 65 -1 60 64 66 62 -1 64 65 69 68 -1 66 70 71 67 -1 65 67 71 69 -1 64 68 70 66 -1 68 69 73 72 -1 70 74 75 71 -1 69 71 75 73 -1 68 72 74 70 -1 72 73 77 76 -1 74 78 79 75 -1 73 75 79 77 -1 72 76 78 74 -1 76 77 81 80 -1 78 82 83 79 -1 77 79 83 81 -1 76 80 82 78 -1 80 81 85 84 -1 82 86 87 83 -1 81 83 87 85 -1 80 84 86 82 -1 84 85 89 88 -1 86 90 91 87 -1 85 87 91 89 -1 84 88 90 86 -1 88 89 93 92 -1 90 94 95 91 -1 89 91 95 93 -1 88 92 94 90 -1 92 93 97 96 -1 94 98 99 95 -1 93 95 99 97 -1 92 96 98 94 -1 96 97 101 100 -1 98 102 103 99 -1 97 99 103 101 -1 96 100 102 98 -1 100 101 105 104 -1 102 106 107 103 -1 101 103 107 105 -1 100 104 106 102 -1 104 105 109 108 -1 106 110 111 107 -1 105 107 111 109 -1 104 108 110 106 -1 108 109 113 112 -1 110 114 115 111 -1 109 111 115 113 -1 108 112 114 110 -1 112 113 117 116 -1 114 118 119 115 -1 113 115 119 117 -1 112 116 118 114 -1 116 117 121 120 -1 118 122 123 119 -1 117 119 123 121 -1 116 120 122 118 -1 120 121 125 124 -1 122 126 127 123 -1 121 123 127 125 -1 120 124 126 122 -1 124 125 129 128 -1 126 130 131 127 -1 125 127 131 129 -1 124 128 130 126 -1 128 129 133 132 -1 130 134 135 131 -1 129 131 135 133 -1 128 132 134 130 -1 132 133 137 136 -1 134 138 139 135 -1 133 135 139 137 -1 132 136 138 134 -1 136 137 141 140 -1 138 142 143 139 -1 137 139 143 141 -1 136 140 142 138 -1 140 141 145 144 -1 142 146 147 143 -1 141 143 147 145 -1 140 144 146 142 -1 144 145 149 148 -1 146 150 151 147 -1 145 147 151 149 -1 144 148 150 146 -1 148 149 153 152 -1 150 154 155 151 -1 149 151 155 153 -1 148 152 154 150 -1 152 153 157 156 -1 154 158 159 155 -1 153 155 159 157 -1 152 156 158 154 -1 156 157 1 0 -1 158 2 3 159 -1 157 159 3 1 -1 156 0 2 158 -1 ] } } }
}
DEF Orbit Transform { # a small orange marker circling the mark
  children Transform { rotation 0 0 1 -0.35 children Transform { translation 7.6 0 0 children Shape { appearance DEF MARK_ORANGE Appearance { material Material { diffuseColor 1 0.48 0.08 emissiveColor 0.7 0.26 0.02 } } geometry IndexedFaceSet { solid FALSE
      coord Coordinate { point [ 0.28 0 0, -0.28 0 0, 0 0.42 0, 0 -0.42 0, 0 0 0.28, 0 0 -0.28 ] }
      coordIndex [ 0 2 4 -1 4 2 1 -1 1 2 5 -1 5 2 0 -1 4 3 0 -1 1 3 4 -1 5 3 1 -1 0 3 5 -1 ] } } } }
}

Transform { # the plaza: base slab, stepped platform, round stage
  children [
    Transform { translation 0 -8 -6 children Shape { appearance DEF INK Appearance { material Material { diffuseColor 0.03 0.04 0.09 specularColor 0.1 0.12 0.2 shininess 0.2 ambientIntensity 0.6 } } geometry Box { size 76 0.8 72 } } }
    Transform { translation 0 -7.4 -1 children Shape { appearance DEF DEEP_BLUE Appearance { material Material { diffuseColor 0.07 0.11 0.36 specularColor 0.15 0.2 0.4 shininess 0.25 ambientIntensity 0.6 } } geometry Box { size 22 0.4 16 } } }
    Transform { translation 0 -7.05 0 children Shape { appearance DEF RESEARCH_BLUE Appearance { material Material { diffuseColor 0.12 0.22 0.68 emissiveColor 0.02 0.04 0.14 specularColor 0.3 0.35 0.6 shininess 0.3 ambientIntensity 0.6 } } geometry Cylinder { radius 4.6 height 0.3 } } }
    Transform { translation 0 -6.75 0 children Shape { appearance USE DEEP_BLUE geometry Cylinder { radius 3.3 height 0.3 } } }
    Shape { appearance USE LINE_GOLD geometry IndexedLineSet {
      coord Coordinate { point [ 4.62 -6.89 0, 4.598 -6.89 0.453, 4.531 -6.89 0.901, 4.421 -6.89 1.341, 4.268 -6.89 1.768, 4.074 -6.89 2.178, 3.841 -6.89 2.567, 3.571 -6.89 2.931, 3.267 -6.89 3.267, 2.931 -6.89 3.571, 2.567 -6.89 3.841, 2.178 -6.89 4.074, 1.768 -6.89 4.268, 1.341 -6.89 4.421, 0.901 -6.89 4.531, 0.453 -6.89 4.598, 0 -6.89 4.62, -0.453 -6.89 4.598, -0.901 -6.89 4.531, -1.341 -6.89 4.421, -1.768 -6.89 4.268, -2.178 -6.89 4.074, -2.567 -6.89 3.841, -2.931 -6.89 3.571, -3.267 -6.89 3.267, -3.571 -6.89 2.931, -3.841 -6.89 2.567, -4.074 -6.89 2.178, -4.268 -6.89 1.768, -4.421 -6.89 1.341, -4.531 -6.89 0.901, -4.598 -6.89 0.453, -4.62 -6.89 0, -4.598 -6.89 -0.453, -4.531 -6.89 -0.901, -4.421 -6.89 -1.341, -4.268 -6.89 -1.768, -4.074 -6.89 -2.178, -3.841 -6.89 -2.567, -3.571 -6.89 -2.931, -3.267 -6.89 -3.267, -2.931 -6.89 -3.571, -2.567 -6.89 -3.841, -2.178 -6.89 -4.074, -1.768 -6.89 -4.268, -1.341 -6.89 -4.421, -0.901 -6.89 -4.531, -0.453 -6.89 -4.598, 0 -6.89 -4.62, 0.453 -6.89 -4.598, 0.901 -6.89 -4.531, 1.341 -6.89 -4.421, 1.768 -6.89 -4.268, 2.178 -6.89 -4.074, 2.567 -6.89 -3.841, 2.931 -6.89 -3.571, 3.267 -6.89 -3.267, 3.571 -6.89 -2.931, 3.841 -6.89 -2.567, 4.074 -6.89 -2.178, 4.268 -6.89 -1.768, 4.421 -6.89 -1.341, 4.531 -6.89 -0.901, 4.598 -6.89 -0.453, 4.62 -6.89 0, 3.32 -6.59 0, 3.304 -6.59 0.325, 3.256 -6.59 0.648, 3.177 -6.59 0.964, 3.067 -6.59 1.271, 2.928 -6.59 1.565, 2.76 -6.59 1.844, 2.566 -6.59 2.106, 2.348 -6.59 2.348, 2.106 -6.59 2.566, 1.844 -6.59 2.76, 1.565 -6.59 2.928, 1.271 -6.59 3.067, 0.964 -6.59 3.177, 0.648 -6.59 3.256, 0.325 -6.59 3.304, 0 -6.59 3.32, -0.325 -6.59 3.304, -0.648 -6.59 3.256, -0.964 -6.59 3.177, -1.271 -6.59 3.067, -1.565 -6.59 2.928, -1.844 -6.59 2.76, -2.106 -6.59 2.566, -2.348 -6.59 2.348, -2.566 -6.59 2.106, -2.76 -6.59 1.844, -2.928 -6.59 1.565, -3.067 -6.59 1.271, -3.177 -6.59 0.964, -3.256 -6.59 0.648, -3.304 -6.59 0.325, -3.32 -6.59 0, -3.304 -6.59 -0.325, -3.256 -6.59 -0.648, -3.177 -6.59 -0.964, -3.067 -6.59 -1.271, -2.928 -6.59 -1.565, -2.76 -6.59 -1.844, -2.566 -6.59 -2.106, -2.348 -6.59 -2.348, -2.106 -6.59 -2.566, -1.844 -6.59 -2.76, -1.565 -6.59 -2.928, -1.271 -6.59 -3.067, -0.964 -6.59 -3.177, -0.648 -6.59 -3.256, -0.325 -6.59 -3.304, 0 -6.59 -3.32, 0.325 -6.59 -3.304, 0.648 -6.59 -3.256, 0.964 -6.59 -3.177, 1.271 -6.59 -3.067, 1.565 -6.59 -2.928, 1.844 -6.59 -2.76, 2.106 -6.59 -2.566, 2.348 -6.59 -2.348, 2.566 -6.59 -2.106, 2.76 -6.59 -1.844, 2.928 -6.59 -1.565, 3.067 -6.59 -1.271, 3.177 -6.59 -0.964, 3.256 -6.59 -0.648, 3.304 -6.59 -0.325, 3.32 -6.59 0 ] }
      coordIndex [ 0 1 2 3 4 5 6 7 8 9 10 11 12 13 14 15 16 17 18 19 20 21 22 23 24 25 26 27 28 29 30 31 32 33 34 35 36 37 38 39 40 41 42 43 44 45 46 47 48 49 50 51 52 53 54 55 56 57 58 59 60 61 62 63 64 -1 65 66 67 68 69 70 71 72 73 74 75 76 77 78 79 80 81 82 83 84 85 86 87 88 89 90 91 92 93 94 95 96 97 98 99 100 101 102 103 104 105 106 107 108 109 110 111 112 113 114 115 116 117 118 119 120 121 122 123 124 125 126 127 128 129 -1 ] } }
    Shape { appearance DEF LINE_CYAN Appearance { material Material { emissiveColor 0.18 0.72 1 } } geometry IndexedLineSet {
      coord Coordinate { point [ 0 -6.6 0, 0 -1.2 0, -0.35 -5.6 0, 0.35 -5.6 0, -0.35 -4.6 0, 0.35 -4.6 0, -0.35 -3.6 0, 0.35 -3.6 0, -0.35 -2.6 0, 0.35 -2.6 0, -0.35 -1.6 0, 0.35 -1.6 0 ] }
      coordIndex [ 0 1 -1 2 3 -1 4 5 -1 6 7 -1 8 9 -1 10 11 -1 ] } }
    Shape { appearance DEF LINE_BLUE Appearance { material Material { emissiveColor 0.14 0.24 0.66 } } geometry IndexedLineSet {
      coord Coordinate { point [ 9.383 -7.58 1.486, 29.631 -7.58 4.693, 8.465 -7.58 4.313, 26.73 -7.58 13.62, 6.718 -7.58 6.718, 21.213 -7.58 21.213, 4.313 -7.58 8.465, 13.62 -7.58 26.73, 1.486 -7.58 9.383, 4.693 -7.58 29.631, -1.486 -7.58 9.383, -4.693 -7.58 29.631, -4.313 -7.58 8.465, -13.62 -7.58 26.73, -6.718 -7.58 6.718, -21.213 -7.58 21.213, -8.465 -7.58 4.313, -26.73 -7.58 13.62, -9.383 -7.58 1.486, -29.631 -7.58 4.693, -9.383 -7.58 -1.486, -29.631 -7.58 -4.693, -8.465 -7.58 -4.313, -26.73 -7.58 -13.62, -6.718 -7.58 -6.718, -21.213 -7.58 -21.213, -4.313 -7.58 -8.465, -13.62 -7.58 -26.73, -1.486 -7.58 -9.383, -4.693 -7.58 -29.631, 1.486 -7.58 -9.383, 4.693 -7.58 -29.631, 4.313 -7.58 -8.465, 13.62 -7.58 -26.73, 6.718 -7.58 -6.718, 21.213 -7.58 -21.213, 8.465 -7.58 -4.313, 26.73 -7.58 -13.62, 9.383 -7.58 -1.486, 29.631 -7.58 -4.693, 13 -7.58 0, 12.951 -7.58 1.133, 12.803 -7.58 2.257, 12.557 -7.58 3.365, 12.216 -7.58 4.446, 11.782 -7.58 5.494, 11.258 -7.58 6.5, 10.649 -7.58 7.456, 9.959 -7.58 8.356, 9.192 -7.58 9.192, 8.356 -7.58 9.959, 7.456 -7.58 10.649, 6.5 -7.58 11.258, 5.494 -7.58 11.782, 4.446 -7.58 12.216, 3.365 -7.58 12.557, 2.257 -7.58 12.803, 1.133 -7.58 12.951, 0 -7.58 13, -1.133 -7.58 12.951, -2.257 -7.58 12.803, -3.365 -7.58 12.557, -4.446 -7.58 12.216, -5.494 -7.58 11.782, -6.5 -7.58 11.258, -7.456 -7.58 10.649, -8.356 -7.58 9.959, -9.192 -7.58 9.192, -9.959 -7.58 8.356, -10.649 -7.58 7.456, -11.258 -7.58 6.5, -11.782 -7.58 5.494, -12.216 -7.58 4.446, -12.557 -7.58 3.365, -12.803 -7.58 2.257, -12.951 -7.58 1.133, -13 -7.58 0, -12.951 -7.58 -1.133, -12.803 -7.58 -2.257, -12.557 -7.58 -3.365, -12.216 -7.58 -4.446, -11.782 -7.58 -5.494, -11.258 -7.58 -6.5, -10.649 -7.58 -7.456, -9.959 -7.58 -8.356, -9.192 -7.58 -9.192, -8.356 -7.58 -9.959, -7.456 -7.58 -10.649, -6.5 -7.58 -11.258, -5.494 -7.58 -11.782, -4.446 -7.58 -12.216, -3.365 -7.58 -12.557, -2.257 -7.58 -12.803, -1.133 -7.58 -12.951, 0 -7.58 -13, 1.133 -7.58 -12.951, 2.257 -7.58 -12.803, 3.365 -7.58 -12.557, 4.446 -7.58 -12.216, 5.494 -7.58 -11.782, 6.5 -7.58 -11.258, 7.456 -7.58 -10.649, 8.356 -7.58 -9.959, 9.192 -7.58 -9.192, 9.959 -7.58 -8.356, 10.649 -7.58 -7.456, 11.258 -7.58 -6.5, 11.782 -7.58 -5.494, 12.216 -7.58 -4.446, 12.557 -7.58 -3.365, 12.803 -7.58 -2.257, 12.951 -7.58 -1.133, 13 -7.58 0, 19 -7.58 0, 18.928 -7.58 1.656, 18.711 -7.58 3.299, 18.353 -7.58 4.918, 17.854 -7.58 6.498, 17.22 -7.58 8.03, 16.454 -7.58 9.5, 15.564 -7.58 10.898, 14.555 -7.58 12.213, 13.435 -7.58 13.435, 12.213 -7.58 14.555, 10.898 -7.58 15.564, 9.5 -7.58 16.454, 8.03 -7.58 17.22, 6.498 -7.58 17.854, 4.918 -7.58 18.353, 3.299 -7.58 18.711, 1.656 -7.58 18.928, 0 -7.58 19, -1.656 -7.58 18.928, -3.299 -7.58 18.711, -4.918 -7.58 18.353, -6.498 -7.58 17.854, -8.03 -7.58 17.22, -9.5 -7.58 16.454, -10.898 -7.58 15.564, -12.213 -7.58 14.555, -13.435 -7.58 13.435, -14.555 -7.58 12.213, -15.564 -7.58 10.898, -16.454 -7.58 9.5, -17.22 -7.58 8.03, -17.854 -7.58 6.498, -18.353 -7.58 4.918, -18.711 -7.58 3.299, -18.928 -7.58 1.656, -19 -7.58 0, -18.928 -7.58 -1.656, -18.711 -7.58 -3.299, -18.353 -7.58 -4.918, -17.854 -7.58 -6.498, -17.22 -7.58 -8.03, -16.454 -7.58 -9.5, -15.564 -7.58 -10.898, -14.555 -7.58 -12.213, -13.435 -7.58 -13.435, -12.213 -7.58 -14.555, -10.898 -7.58 -15.564, -9.5 -7.58 -16.454, -8.03 -7.58 -17.22, -6.498 -7.58 -17.854, -4.918 -7.58 -18.353, -3.299 -7.58 -18.711, -1.656 -7.58 -18.928, 0 -7.58 -19, 1.656 -7.58 -18.928, 3.299 -7.58 -18.711, 4.918 -7.58 -18.353, 6.498 -7.58 -17.854, 8.03 -7.58 -17.22, 9.5 -7.58 -16.454, 10.898 -7.58 -15.564, 12.213 -7.58 -14.555, 13.435 -7.58 -13.435, 14.555 -7.58 -12.213, 15.564 -7.58 -10.898, 16.454 -7.58 -9.5, 17.22 -7.58 -8.03, 17.854 -7.58 -6.498, 18.353 -7.58 -4.918, 18.711 -7.58 -3.299, 18.928 -7.58 -1.656, 19 -7.58 0, 27 -7.58 0, 26.897 -7.58 2.353, 26.59 -7.58 4.689, 26.08 -7.58 6.988, 25.372 -7.58 9.235, 24.47 -7.58 11.411, 23.383 -7.58 13.5, 22.117 -7.58 15.487, 20.683 -7.58 17.355, 19.092 -7.58 19.092, 17.355 -7.58 20.683, 15.487 -7.58 22.117, 13.5 -7.58 23.383, 11.411 -7.58 24.47, 9.235 -7.58 25.372, 6.988 -7.58 26.08, 4.689 -7.58 26.59, 2.353 -7.58 26.897, 0 -7.58 27, -2.353 -7.58 26.897, -4.689 -7.58 26.59, -6.988 -7.58 26.08, -9.235 -7.58 25.372, -11.411 -7.58 24.47, -13.5 -7.58 23.383, -15.487 -7.58 22.117, -17.355 -7.58 20.683, -19.092 -7.58 19.092, -20.683 -7.58 17.355, -22.117 -7.58 15.487, -23.383 -7.58 13.5, -24.47 -7.58 11.411, -25.372 -7.58 9.235, -26.08 -7.58 6.988, -26.59 -7.58 4.689, -26.897 -7.58 2.353, -27 -7.58 0, -26.897 -7.58 -2.353, -26.59 -7.58 -4.689, -26.08 -7.58 -6.988, -25.372 -7.58 -9.235, -24.47 -7.58 -11.411, -23.383 -7.58 -13.5, -22.117 -7.58 -15.487, -20.683 -7.58 -17.355, -19.092 -7.58 -19.092, -17.355 -7.58 -20.683, -15.487 -7.58 -22.117, -13.5 -7.58 -23.383, -11.411 -7.58 -24.47, -9.235 -7.58 -25.372, -6.988 -7.58 -26.08, -4.689 -7.58 -26.59, -2.353 -7.58 -26.897, 0 -7.58 -27, 2.353 -7.58 -26.897, 4.689 -7.58 -26.59, 6.988 -7.58 -26.08, 9.235 -7.58 -25.372, 11.411 -7.58 -24.47, 13.5 -7.58 -23.383, 15.487 -7.58 -22.117, 17.355 -7.58 -20.683, 19.092 -7.58 -19.092, 20.683 -7.58 -17.355, 22.117 -7.58 -15.487, 23.383 -7.58 -13.5, 24.47 -7.58 -11.411, 25.372 -7.58 -9.235, 26.08 -7.58 -6.988, 26.59 -7.58 -4.689, 26.897 -7.58 -2.353, 27 -7.58 0, 8 -7.57 -30, 8 -7.57 -8, 10 -7.57 -30, 10 -7.57 -8, 12 -7.57 -30, 12 -7.57 -8, 14 -7.57 -30, 14 -7.57 -8, 16 -7.57 -30, 16 -7.57 -8, 18 -7.57 -30, 18 -7.57 -8, 20 -7.57 -30, 20 -7.57 -8, 22 -7.57 -30, 22 -7.57 -8, 24 -7.57 -30, 24 -7.57 -8, 26 -7.57 -30, 26 -7.57 -8, 28 -7.57 -30, 28 -7.57 -8, 8 -7.57 -30, 28 -7.57 -30, 8 -7.57 -28, 28 -7.57 -28, 8 -7.57 -26, 28 -7.57 -26, 8 -7.57 -24, 28 -7.57 -24, 8 -7.57 -22, 28 -7.57 -22, 8 -7.57 -20, 28 -7.57 -20, 8 -7.57 -18, 28 -7.57 -18, 8 -7.57 -16, 28 -7.57 -16, 8 -7.57 -14, 28 -7.57 -14, 8 -7.57 -12, 28 -7.57 -12, 8 -7.57 -10, 28 -7.57 -10, 8 -7.57 -8, 28 -7.57 -8 ] }
      coordIndex [ 0 1 -1 2 3 -1 4 5 -1 6 7 -1 8 9 -1 10 11 -1 12 13 -1 14 15 -1 16 17 -1 18 19 -1 20 21 -1 22 23 -1 24 25 -1 26 27 -1 28 29 -1 30 31 -1 32 33 -1 34 35 -1 36 37 -1 38 39 -1 40 41 42 43 44 45 46 47 48 49 50 51 52 53 54 55 56 57 58 59 60 61 62 63 64 65 66 67 68 69 70 71 72 73 74 75 76 77 78 79 80 81 82 83 84 85 86 87 88 89 90 91 92 93 94 95 96 97 98 99 100 101 102 103 104 105 106 107 108 109 110 111 112 -1 113 114 115 116 117 118 119 120 121 122 123 124 125 126 127 128 129 130 131 132 133 134 135 136 137 138 139 140 141 142 143 144 145 146 147 148 149 150 151 152 153 154 155 156 157 158 159 160 161 162 163 164 165 166 167 168 169 170 171 172 173 174 175 176 177 178 179 180 181 182 183 184 185 -1 186 187 188 189 190 191 192 193 194 195 196 197 198 199 200 201 202 203 204 205 206 207 208 209 210 211 212 213 214 215 216 217 218 219 220 221 222 223 224 225 226 227 228 229 230 231 232 233 234 235 236 237 238 239 240 241 242 243 244 245 246 247 248 249 250 251 252 253 254 255 256 257 258 -1 259 260 -1 261 262 -1 263 264 -1 265 266 -1 267 268 -1 269 270 -1 271 272 -1 273 274 -1 275 276 -1 277 278 -1 279 280 -1 281 282 -1 283 284 -1 285 286 -1 287 288 -1 289 290 -1 291 292 -1 293 294 -1 295 296 -1 297 298 -1 299 300 -1 301 302 -1 303 304 -1 ] } }
    Shape { appearance USE DEEP_BLUE geometry IndexedFaceSet { solid FALSE
      coord Coordinate { point [ -6.5 -7.6 7, -3.5 -7.6 7, -3.5 -7.6 17, -6.5 -7.6 17, -6.5 -7.2 7, -3.5 -7.2 7 ] }
      coordIndex [ 0 1 2 3 -1 0 4 5 1 -1 4 3 2 5 -1 0 3 4 -1 1 5 2 -1 ] } }
  ]
}

Transform { # west: slab tower, cantilevered decks, leaning fin
  children [
    Shape { appearance USE RESEARCH_BLUE geometry IndexedFaceSet { solid FALSE
      coord Coordinate { point [ -21.2 -7.6 -15.8, -21.2 -7.6 -16.2, -16.8 -7.6 -15.8, -16.8 -7.6 -16.2, -9 22 -18.8, -9 22 -19.2 ] }
      coordIndex [ 0 2 4 -1 1 5 3 -1 0 1 3 2 -1 2 3 5 4 -1 4 5 1 0 -1 ] } }
    Transform { translation -14.5 5.4 -9 children Shape { appearance USE DEEP_BLUE geometry Box { size 3.4 26 3.4 } } }
    Transform { translation -12.76 5.4 -9 children Shape { appearance DEF PAPER_WHITE Appearance { material Material { diffuseColor 0.9 0.92 0.96 emissiveColor 0.22 0.24 0.3 ambientIntensity 0.5 } } geometry Box { size 0.08 26 0.5 } } }
    Transform { translation -10 3.5 -8 children Shape { appearance USE RESEARCH_BLUE geometry Box { size 9 0.5 4.2 } } }
    Transform { translation -5.52 3.5 -8 children Shape { appearance USE ANNOTATION_GOLD geometry Box { size 0.06 0.5 4.22 } } }
    Transform { translation -11 9.2 -10.5 children Shape { appearance USE INK geometry Box { size 11 0.5 3.2 } } }
    Transform { translation -7.5 -2.05 -8 children Shape { appearance USE INK geometry Box { size 0.3 11.1 0.3 } } }
    Shape { appearance USE LINE_CYAN geometry IndexedLineSet {
      coord Coordinate { point [ -10 3.78 -5.9, -5.6 3.78 -5.9 ] }
      coordIndex [ 0 1 -1 ] } }
  ]
}

Transform { # east: fin fan, mast, target sign
  children [
    Shape { appearance USE DEEP_BLUE geometry IndexedFaceSet { solid FALSE
      coord Coordinate { point [ 16.254 -7.6 -11.85, 16.254 -7.6 -12.15, 19.165 -7.6 -11.85, 19.165 -7.6 -12.15, 15.532 9.273 -13.713, 15.532 9.273 -14.013, 18.207 -7.6 -11.85, 18.207 -7.6 -12.15, 19.684 -7.6 -11.85, 19.684 -7.6 -12.15, 22.728 1.388 -12.168, 22.728 1.388 -12.468 ] }
      coordIndex [ 0 2 4 -1 1 5 3 -1 0 1 3 2 -1 2 3 5 4 -1 4 5 1 0 -1 6 8 10 -1 7 11 9 -1 6 7 9 8 -1 8 9 11 10 -1 10 11 7 6 -1 ] } }
    Shape { appearance USE RESEARCH_BLUE geometry IndexedFaceSet { solid FALSE
      coord Coordinate { point [ 16.143 -7.6 -11.85, 16.143 -7.6 -12.15, 19.941 -7.6 -11.85, 19.941 -7.6 -12.15, 18.503 16.396 -13.298, 18.503 16.396 -13.598 ] }
      coordIndex [ 0 2 4 -1 1 5 3 -1 0 1 3 2 -1 2 3 5 4 -1 4 5 1 0 -1 ] } }
    Shape { appearance USE INK geometry IndexedFaceSet { solid FALSE
      coord Coordinate { point [ 16.849 -7.6 -11.85, 16.849 -7.6 -12.15, 19.893 -7.6 -11.85, 19.893 -7.6 -12.15, 21.523 11.166 -12.886, 21.523 11.166 -13.186 ] }
      coordIndex [ 0 2 4 -1 1 5 3 -1 0 1 3 2 -1 2 3 5 4 -1 4 5 1 0 -1 ] } }
    Shape { appearance DEF ACCENT_MAGENTA Appearance { material Material { diffuseColor 0.85 0.12 0.62 emissiveColor 0.3 0.02 0.2 ambientIntensity 0.5 } } geometry IndexedFaceSet { solid FALSE
      coord Coordinate { point [ 17.51 -7.6 -11.85, 17.51 -7.6 -12.15, 19.832 -7.6 -11.85, 19.832 -7.6 -12.15, 22.697 5.788 -12.511, 22.697 5.788 -12.811 ] }
      coordIndex [ 0 2 4 -1 1 5 3 -1 0 1 3 2 -1 2 3 5 4 -1 4 5 1 0 -1 ] } }
    Transform { translation 10.5 0.9 -6 children Shape { appearance USE INK geometry Box { size 0.3 17 0.3 } } }
    Transform { translation 10.5 4.4 -6 children Shape { appearance USE INK geometry Box { size 2.4 0.16 0.16 } } }
    Transform { translation 10.5 6.4 -6 children Shape { appearance USE INK geometry Box { size 3.4 0.16 0.16 } } }
    Transform { # target sign
      translation 10.5 9.6 -5.9
      children [
        Transform { translation 0 0 -0.06 rotation 1 0 0 1.571 children Shape { appearance USE INK geometry Cylinder { radius 1.6 height 0.08 } } }
        Shape { appearance USE ANNOTATION_GOLD geometry IndexedFaceSet { solid FALSE
      coord Coordinate { point [ 0.2 0 0, 0.38 0 0, 0.195 0.045 0, 0.37 0.085 0, 0.18 0.087 0, 0.342 0.165 0, 0.156 0.125 0, 0.297 0.237 0, 0.125 0.156 0, 0.237 0.297 0, 0.087 0.18 0, 0.165 0.342 0, 0.045 0.195 0, 0.085 0.37 0, 0 0.2 0, 0 0.38 0, -0.045 0.195 0, -0.085 0.37 0, -0.087 0.18 0, -0.165 0.342 0, -0.125 0.156 0, -0.237 0.297 0, -0.156 0.125 0, -0.297 0.237 0, -0.18 0.087 0, -0.342 0.165 0, -0.195 0.045 0, -0.37 0.085 0, -0.2 0 0, -0.38 0 0, -0.195 -0.045 0, -0.37 -0.085 0, -0.18 -0.087 0, -0.342 -0.165 0, -0.156 -0.125 0, -0.297 -0.237 0, -0.125 -0.156 0, -0.237 -0.297 0, -0.087 -0.18 0, -0.165 -0.342 0, -0.045 -0.195 0, -0.085 -0.37 0, 0 -0.2 0, 0 -0.38 0, 0.045 -0.195 0, 0.085 -0.37 0, 0.087 -0.18 0, 0.165 -0.342 0, 0.125 -0.156 0, 0.237 -0.297 0, 0.156 -0.125 0, 0.297 -0.237 0, 0.18 -0.087 0, 0.342 -0.165 0, 0.195 -0.045 0, 0.37 -0.085 0, 0.9 0 0, 1.08 0 0, 0.877 0.2 0, 1.053 0.24 0, 0.811 0.39 0, 0.973 0.469 0, 0.704 0.561 0, 0.844 0.673 0, 0.561 0.704 0, 0.673 0.844 0, 0.39 0.811 0, 0.469 0.973 0, 0.2 0.877 0, 0.24 1.053 0, 0 0.9 0, 0 1.08 0, -0.2 0.877 0, -0.24 1.053 0, -0.39 0.811 0, -0.469 0.973 0, -0.561 0.704 0, -0.673 0.844 0, -0.704 0.561 0, -0.844 0.673 0, -0.811 0.39 0, -0.973 0.469 0, -0.877 0.2 0, -1.053 0.24 0, -0.9 0 0, -1.08 0 0, -0.877 -0.2 0, -1.053 -0.24 0, -0.811 -0.39 0, -0.973 -0.469 0, -0.704 -0.561 0, -0.844 -0.673 0, -0.561 -0.704 0, -0.673 -0.844 0, -0.39 -0.811 0, -0.469 -0.973 0, -0.2 -0.877 0, -0.24 -1.053 0, 0 -0.9 0, 0 -1.08 0, 0.2 -0.877 0, 0.24 -1.053 0, 0.39 -0.811 0, 0.469 -0.973 0, 0.561 -0.704 0, 0.673 -0.844 0, 0.704 -0.561 0, 0.844 -0.673 0, 0.811 -0.39 0, 0.973 -0.469 0, 0.877 -0.2 0, 1.053 -0.24 0 ] }
      coordIndex [ 0 1 3 2 -1 2 3 5 4 -1 4 5 7 6 -1 6 7 9 8 -1 8 9 11 10 -1 10 11 13 12 -1 12 13 15 14 -1 14 15 17 16 -1 16 17 19 18 -1 18 19 21 20 -1 20 21 23 22 -1 22 23 25 24 -1 24 25 27 26 -1 26 27 29 28 -1 28 29 31 30 -1 30 31 33 32 -1 32 33 35 34 -1 34 35 37 36 -1 36 37 39 38 -1 38 39 41 40 -1 40 41 43 42 -1 42 43 45 44 -1 44 45 47 46 -1 46 47 49 48 -1 48 49 51 50 -1 50 51 53 52 -1 52 53 55 54 -1 54 55 1 0 -1 56 57 59 58 -1 58 59 61 60 -1 60 61 63 62 -1 62 63 65 64 -1 64 65 67 66 -1 66 67 69 68 -1 68 69 71 70 -1 70 71 73 72 -1 72 73 75 74 -1 74 75 77 76 -1 76 77 79 78 -1 78 79 81 80 -1 80 81 83 82 -1 82 83 85 84 -1 84 85 87 86 -1 86 87 89 88 -1 88 89 91 90 -1 90 91 93 92 -1 92 93 95 94 -1 94 95 97 96 -1 96 97 99 98 -1 98 99 101 100 -1 100 101 103 102 -1 102 103 105 104 -1 104 105 107 106 -1 106 107 109 108 -1 108 109 111 110 -1 110 111 57 56 -1 ] } }
        Shape { appearance USE FREEWRL_CYAN geometry IndexedFaceSet { solid FALSE
      coord Coordinate { point [ 0.55 0 0, 0.73 0 0, 0.536 0.122 0, 0.712 0.162 0, 0.496 0.239 0, 0.658 0.317 0, 0.43 0.343 0, 0.571 0.455 0, 0.343 0.43 0, 0.455 0.571 0, 0.239 0.496 0, 0.317 0.658 0, 0.122 0.536 0, 0.162 0.712 0, 0 0.55 0, 0 0.73 0, -0.122 0.536 0, -0.162 0.712 0, -0.239 0.496 0, -0.317 0.658 0, -0.343 0.43 0, -0.455 0.571 0, -0.43 0.343 0, -0.571 0.455 0, -0.496 0.239 0, -0.658 0.317 0, -0.536 0.122 0, -0.712 0.162 0, -0.55 0 0, -0.73 0 0, -0.536 -0.122 0, -0.712 -0.162 0, -0.496 -0.239 0, -0.658 -0.317 0, -0.43 -0.343 0, -0.571 -0.455 0, -0.343 -0.43 0, -0.455 -0.571 0, -0.239 -0.496 0, -0.317 -0.658 0, -0.122 -0.536 0, -0.162 -0.712 0, 0 -0.55 0, 0 -0.73 0, 0.122 -0.536 0, 0.162 -0.712 0, 0.239 -0.496 0, 0.317 -0.658 0, 0.343 -0.43 0, 0.455 -0.571 0, 0.43 -0.343 0, 0.571 -0.455 0, 0.496 -0.239 0, 0.658 -0.317 0, 0.536 -0.122 0, 0.712 -0.162 0, 1.25 0 0, 1.43 0 0, 1.219 0.278 0, 1.394 0.318 0, 1.126 0.542 0, 1.288 0.62 0, 0.977 0.779 0, 1.118 0.892 0, 0.779 0.977 0, 0.892 1.118 0, 0.542 1.126 0, 0.62 1.288 0, 0.278 1.219 0, 0.318 1.394 0, 0 1.25 0, 0 1.43 0, -0.278 1.219 0, -0.318 1.394 0, -0.542 1.126 0, -0.62 1.288 0, -0.779 0.977 0, -0.892 1.118 0, -0.977 0.779 0, -1.118 0.892 0, -1.126 0.542 0, -1.288 0.62 0, -1.219 0.278 0, -1.394 0.318 0, -1.25 0 0, -1.43 0 0, -1.219 -0.278 0, -1.394 -0.318 0, -1.126 -0.542 0, -1.288 -0.62 0, -0.977 -0.779 0, -1.118 -0.892 0, -0.779 -0.977 0, -0.892 -1.118 0, -0.542 -1.126 0, -0.62 -1.288 0, -0.278 -1.219 0, -0.318 -1.394 0, 0 -1.25 0, 0 -1.43 0, 0.278 -1.219 0, 0.318 -1.394 0, 0.542 -1.126 0, 0.62 -1.288 0, 0.779 -0.977 0, 0.892 -1.118 0, 0.977 -0.779 0, 1.118 -0.892 0, 1.126 -0.542 0, 1.288 -0.62 0, 1.219 -0.278 0, 1.394 -0.318 0 ] }
      coordIndex [ 0 1 3 2 -1 2 3 5 4 -1 4 5 7 6 -1 6 7 9 8 -1 8 9 11 10 -1 10 11 13 12 -1 12 13 15 14 -1 14 15 17 16 -1 16 17 19 18 -1 18 19 21 20 -1 20 21 23 22 -1 22 23 25 24 -1 24 25 27 26 -1 26 27 29 28 -1 28 29 31 30 -1 30 31 33 32 -1 32 33 35 34 -1 34 35 37 36 -1 36 37 39 38 -1 38 39 41 40 -1 40 41 43 42 -1 42 43 45 44 -1 44 45 47 46 -1 46 47 49 48 -1 48 49 51 50 -1 50 51 53 52 -1 52 53 55 54 -1 54 55 1 0 -1 56 57 59 58 -1 58 59 61 60 -1 60 61 63 62 -1 62 63 65 64 -1 64 65 67 66 -1 66 67 69 68 -1 68 69 71 70 -1 70 71 73 72 -1 72 73 75 74 -1 74 75 77 76 -1 76 77 79 78 -1 78 79 81 80 -1 80 81 83 82 -1 82 83 85 84 -1 84 85 87 86 -1 86 87 89 88 -1 88 89 91 90 -1 90 91 93 92 -1 92 93 95 94 -1 94 95 97 96 -1 96 97 99 98 -1 98 99 101 100 -1 100 101 103 102 -1 102 103 105 104 -1 104 105 107 106 -1 106 107 109 108 -1 108 109 111 110 -1 110 111 57 56 -1 ] } }
      ]
    }
    Shape { appearance USE LINE_CYAN geometry IndexedLineSet {
      coord Coordinate { point [ 10.5 9.4 -6, 26 -7.6 4 ] }
      coordIndex [ 0 1 -1 ] } }
  ]
}

Transform { # portal: jambs and lintel, front right
  translation 8.2 0 10.2
  rotation 0 1 0 0.637
  children [
    Transform { translation -2.4 -2.6 0 children Shape { appearance USE INK geometry Box { size 0.7 10 1.2 } } }
    Transform { translation 2.4 -3.85 0 children Shape { appearance USE INK geometry Box { size 0.7 7.5 1.2 } } }
    Transform { translation 0.6 2.5 0 rotation 0 0 1 -0.105 children Shape { appearance USE RESEARCH_BLUE geometry Box { size 7.4 0.6 1.4 } } }
    Transform { translation 0.6 2.2 0.72 rotation 0 0 1 -0.105 children Shape { appearance USE ANNOTATION_GOLD geometry Box { size 7.4 0.1 0.04 } } }
    Shape { appearance USE LINE_CYAN geometry IndexedLineSet {
      coord Coordinate { point [ -2.03 -7.6 0.61, -2.03 2.4 0.61 ] }
      coordIndex [ 0 1 -1 ] } }
  ]
}

Transform { # sky structure: a suspended slab
  children [
    Transform { translation 2 13.5 -17 rotation 0 0 1 -0.122 children Shape { appearance USE RESEARCH_BLUE geometry Box { size 22 0.5 3.4 } } }
    Transform { translation 2 13.2 -15.28 rotation 0 0 1 -0.122 children Shape { appearance USE ANNOTATION_GOLD geometry Box { size 22 0.12 0.06 } } }
    Shape { appearance USE LINE_CYAN geometry IndexedLineSet {
      coord Coordinate { point [ -8.9 14.8 -17, -14.5 18.4 -9, 12.9 12.1 -17, 18 -7.6 -26 ] }
      coordIndex [ 0 1 -1 2 3 -1 ] } }
  ]
}

Transform { # skyline silhouettes
  children [
    Shape { appearance USE INK geometry IndexedFaceSet { solid FALSE
      coord Coordinate { point [ -48.5 -7.6 -54.5, -43.5 -7.6 -54.5, -43.5 -7.6 -49.5, -48.5 -7.6 -49.5, -48.5 10.4 -54.5, -43.5 10.4 -54.5, -43.5 10.4 -49.5, -48.5 10.4 -49.5, -40 -7.6 -60, -36 -7.6 -60, -36 -7.6 -56, -40 -7.6 -56, -40 22.4 -60, -36 22.4 -60, -36 22.4 -56, -40 22.4 -56, -33.5 -7.6 -52.5, -26.5 -7.6 -52.5, -26.5 -7.6 -47.5, -33.5 -7.6 -47.5, -33.5 4.4 -52.5, -26.5 4.4 -52.5, -26.5 4.4 -47.5, -33.5 4.4 -47.5, -23.5 -7.6 -63.5, -20.5 -7.6 -63.5, -20.5 -7.6 -60.5, -23.5 -7.6 -60.5, -23.5 16.4 -63.5, -20.5 16.4 -63.5, -20.5 16.4 -60.5, -23.5 16.4 -60.5, -15 -7.6 -59, -9 -7.6 -59, -9 -7.6 -53, -15 -7.6 -53, -15 7.4 -59, -9 7.4 -59, -9 7.4 -53, -15 7.4 -53, -5.5 -7.6 -67.5, -2.5 -7.6 -67.5, -2.5 -7.6 -64.5, -5.5 -7.6 -64.5, -5.5 28.4 -67.5, -2.5 28.4 -67.5, -2.5 28.4 -64.5, -5.5 28.4 -64.5, 4 -7.6 -60.5, 12 -7.6 -60.5, 12 -7.6 -55.5, 4 -7.6 -55.5, 4 2.4 -60.5, 12 2.4 -60.5, 12 2.4 -55.5, 4 2.4 -55.5, 18 -7.6 -62, 22 -7.6 -62, 22 -7.6 -58, 18 -7.6 -58, 18 19.4 -62, 22 19.4 -62, 22 19.4 -58, 18 19.4 -58, 25 -7.6 -55, 31 -7.6 -55, 31 -7.6 -49, 25 -7.6 -49, 25 8.4 -55, 31 8.4 -55, 31 8.4 -49, 25 8.4 -49, 36.5 -7.6 -63.5, 39.5 -7.6 -63.5, 39.5 -7.6 -60.5, 36.5 -7.6 -60.5, 36.5 26.4 -63.5, 39.5 26.4 -63.5, 39.5 26.4 -60.5, 36.5 26.4 -60.5, 42.5 -7.6 -56.5, 49.5 -7.6 -56.5, 49.5 -7.6 -51.5, 42.5 -7.6 -51.5, 42.5 12.4 -56.5, 49.5 12.4 -56.5, 49.5 12.4 -51.5, 42.5 12.4 -51.5, -58 -7.6 -43, -54 -7.6 -43, -54 -7.6 -37, -58 -7.6 -37, -58 6.4 -43, -54 6.4 -43, -54 6.4 -37, -58 6.4 -37, 53.5 -7.6 -44.5, 58.5 -7.6 -44.5, 58.5 -7.6 -39.5, 53.5 -7.6 -39.5, 53.5 14.4 -44.5, 58.5 14.4 -44.5, 58.5 14.4 -39.5, 53.5 14.4 -39.5 ] }
      coordIndex [ 3 2 1 0 -1 4 5 6 7 -1 0 1 5 4 -1 1 2 6 5 -1 2 3 7 6 -1 3 0 4 7 -1 11 10 9 8 -1 12 13 14 15 -1 8 9 13 12 -1 9 10 14 13 -1 10 11 15 14 -1 11 8 12 15 -1 19 18 17 16 -1 20 21 22 23 -1 16 17 21 20 -1 17 18 22 21 -1 18 19 23 22 -1 19 16 20 23 -1 27 26 25 24 -1 28 29 30 31 -1 24 25 29 28 -1 25 26 30 29 -1 26 27 31 30 -1 27 24 28 31 -1 35 34 33 32 -1 36 37 38 39 -1 32 33 37 36 -1 33 34 38 37 -1 34 35 39 38 -1 35 32 36 39 -1 43 42 41 40 -1 44 45 46 47 -1 40 41 45 44 -1 41 42 46 45 -1 42 43 47 46 -1 43 40 44 47 -1 51 50 49 48 -1 52 53 54 55 -1 48 49 53 52 -1 49 50 54 53 -1 50 51 55 54 -1 51 48 52 55 -1 59 58 57 56 -1 60 61 62 63 -1 56 57 61 60 -1 57 58 62 61 -1 58 59 63 62 -1 59 56 60 63 -1 67 66 65 64 -1 68 69 70 71 -1 64 65 69 68 -1 65 66 70 69 -1 66 67 71 70 -1 67 64 68 71 -1 75 74 73 72 -1 76 77 78 79 -1 72 73 77 76 -1 73 74 78 77 -1 74 75 79 78 -1 75 72 76 79 -1 83 82 81 80 -1 84 85 86 87 -1 80 81 85 84 -1 81 82 86 85 -1 82 83 87 86 -1 83 80 84 87 -1 91 90 89 88 -1 92 93 94 95 -1 88 89 93 92 -1 89 90 94 93 -1 90 91 95 94 -1 91 88 92 95 -1 99 98 97 96 -1 100 101 102 103 -1 96 97 101 100 -1 97 98 102 101 -1 98 99 103 102 -1 99 96 100 103 -1 ] } }
    Shape { appearance USE DEEP_BLUE geometry IndexedFaceSet { solid FALSE
      coord Coordinate { point [ -30 -7.6 -47.8, -30 -7.6 -48.2, -26 -7.6 -47.8, -26 -7.6 -48.2, -20 34 -51.8, -20 34 -52.2, 32 -7.6 -45.8, 32 -7.6 -46.2, 36 -7.6 -45.8, 36 -7.6 -46.2, 28 30 -49.8, 28 30 -50.2 ] }
      coordIndex [ 0 2 4 -1 1 5 3 -1 0 1 3 2 -1 2 3 5 4 -1 4 5 1 0 -1 6 8 10 -1 7 11 9 -1 6 7 9 8 -1 8 9 11 10 -1 10 11 7 6 -1 ] } }
  ]
}

Transform { # foreground: plinth with an x, y, z marker
  children [
    Transform { translation -10.5 -6.7 10 children Shape { appearance USE INK geometry Box { size 6 1.8 4 } } }
    Shape { appearance USE LINE_CYAN geometry IndexedLineSet {
      coord Coordinate { point [ -13.5 -5.79 12.01, -7.5 -5.79 12.01 ] }
      coordIndex [ 0 1 -1 ] } }
    Transform {
      translation -10.5 -5.8 10
      children [
        Transform { translation 1.2 0.08 0 children Shape { appearance USE ANNOTATION_GOLD geometry Box { size 2.4 0.16 0.16 } } }
        Transform { translation 0 1.2 0 children Shape { appearance USE PAPER_WHITE geometry Box { size 0.16 2.4 0.16 } } }
        Transform { translation 0 0.08 1.2 children Shape { appearance USE FREEWRL_CYAN geometry Box { size 0.16 0.16 2.4 } } }
        Transform { translation 0 0.15 0 children Shape { appearance USE MARK_ORANGE geometry Box { size 0.4 0.3 0.4 } } }
      ]
    }
  ]
}

# One clock drives all motion, so pausing "Clock" stills the whole world.
DEF Clock TimeSensor { cycleInterval 72 loop TRUE }
DEF GyroTurn OrientationInterpolator { key [ 0 0.25 0.5 0.75 1 ] keyValue [ 0 1 0 0, 0 1 0 1.5708, 0 1 0 3.1416, 0 1 0 4.7124, 0 1 0 6.2832 ] }
DEF OrbitTurn OrientationInterpolator { key [ 0 0.25 0.5 0.75 1 ] keyValue [ 0 1 0 0, 0 1 0 -1.5708, 0 1 0 -3.1416, 0 1 0 -4.7124, 0 1 0 -6.2832 ] }
ROUTE Clock.fraction_changed TO GyroTurn.set_fraction
ROUTE Clock.fraction_changed TO OrbitTurn.set_fraction
ROUTE GyroTurn.value_changed TO Gyro.set_rotation
ROUTE OrbitTurn.value_changed TO Orbit.set_rotation
