#VRML V2.0 utf8
# hand-and-eye.wrl — the FreeWRL mark, rebuilt from VRML97 primitives.
# Five capsules (Cylinder + two Spheres) and an eye (three shapes).
# Generated by scripts/gen-hero-world.mjs for freewrl.org.
# Try: change a finger's height, or the iris diffuseColor.

WorldInfo { title "hand-and-eye" info [ "freewrl.org hero world" ] }
NavigationInfo { type [ "EXAMINE" "ANY" ] headlight TRUE }
Background { skyColor [ 0.06 0.09 0.3, 0.03 0.05 0.17, 0.02 0.03 0.1 ] skyAngle [ 1.2, 1.5708 ] groundColor [ 0.02 0.03 0.1 ] }
DEF Front Viewpoint { position 0 1.3 11.5 description "Front" }
Viewpoint { position 11 9 11 orientation -0.6 0.77 0.22 0.9 description "Above" }
Viewpoint { position 0 0.8 5.5 description "Close" }
DirectionalLight { direction -0.4 -0.6 -0.7 intensity 0.6 }

DEF Hand Transform {
  translation 0 0 0
  children [
    Transform { # eyeball, flattened so the iris sits on its face
      scale 1 1 0.62
      children Shape {
        appearance Appearance { material Material { diffuseColor 0.62 0.76 0.95 specularColor 1 1 1 shininess 0.8 } }
        geometry Sphere { radius 1.15 }
      }
    }
    Transform { # iris
      translation 0 0 0.735 rotation 1 0 0 1.5708
      children Shape {
        appearance Appearance { material DEF Iris Material { diffuseColor 0.04 0.28 0.85 emissiveColor 0.02 0.14 0.48 specularColor 0.25 0.3 0.4 shininess 0.3 } }
        geometry Cylinder { radius 0.64 height 0.06 }
      }
    }
    Transform { # pupil
      translation 0 0 0.775 rotation 1 0 0 1.5708
      children Shape {
        appearance Appearance { material Material { diffuseColor 0 0 0 specularColor 0.15 0.15 0.15 shininess 0.5 } }
        geometry Cylinder { radius 0.3 height 0.04 }
      }
    }
    Transform { # catch-light
      translation -0.26 0.28 0.8
      children Shape { appearance Appearance { material Material { diffuseColor 1 1 1 emissiveColor 0.9 0.95 1 } } geometry Sphere { radius 0.08 } }
    }
    Transform { # the five fingers
      children [
        Shape { appearance DEF Glass Appearance { material Material { diffuseColor 0.1 0.62 1 emissiveColor 0.04 0.4 0.78 specularColor 0.9 0.97 1 shininess 0.7 } } }
    Transform { # finger 1
      translation -2.3965 0.5094 0
      rotation 0 0 1 1.3614
      children [
        Shape { appearance USE Glass geometry Cylinder { radius 0.3 height 2.2 top FALSE bottom FALSE } }
        Transform { translation 0 1.1 0 children Shape { appearance USE Glass geometry Sphere { radius 0.3 } } }
        Transform { translation 0 -1.1 0 children Shape { appearance USE Glass geometry Sphere { radius 0.3 } } }
      ]
    }
    Transform { # finger 2
      translation -1.6851 2.2362 0
      rotation 0 0 1 0.6458
      children [
        Shape { appearance USE Glass geometry Cylinder { radius 0.3 height 2.7 top FALSE bottom FALSE } }
        Transform { translation 0 1.35 0 children Shape { appearance USE Glass geometry Sphere { radius 0.3 } } }
        Transform { translation 0 -1.35 0 children Shape { appearance USE Glass geometry Sphere { radius 0.3 } } }
      ]
    }
    Transform { # finger 3
      translation -0.157 2.9959 0
      rotation 0 0 1 0.0524
      children [
        Shape { appearance USE Glass geometry Cylinder { radius 0.3 height 3.1 top FALSE bottom FALSE } }
        Transform { translation 0 1.55 0 children Shape { appearance USE Glass geometry Sphere { radius 0.3 } } }
        Transform { translation 0 -1.55 0 children Shape { appearance USE Glass geometry Sphere { radius 0.3 } } }
      ]
    }
    Transform { # finger 4
      translation 1.338 2.5164 0
      rotation 0 0 1 -0.4887
      children [
        Shape { appearance USE Glass geometry Cylinder { radius 0.3 height 2.8 top FALSE bottom FALSE } }
        Transform { translation 0 1.4 0 children Shape { appearance USE Glass geometry Sphere { radius 0.3 } } }
        Transform { translation 0 -1.4 0 children Shape { appearance USE Glass geometry Sphere { radius 0.3 } } }
      ]
    }
    Transform { # finger 5
      translation 2.1386 1.3888 0
      rotation 0 0 1 -0.9948
      children [
        Shape { appearance USE Glass geometry Cylinder { radius 0.3 height 2.3 top FALSE bottom FALSE } }
        Transform { translation 0 1.15 0 children Shape { appearance USE Glass geometry Sphere { radius 0.3 } } }
        Transform { translation 0 -1.15 0 children Shape { appearance USE Glass geometry Sphere { radius 0.3 } } }
      ]
    }
      ]
    }
  ]
}

DEF Dome Transform {
  translation 0 -2.6 0
  children [
    Shape {
      appearance Appearance { material Material { emissiveColor 0.78 0.6 0.14 } }
      geometry IndexedLineSet {
        coord Coordinate { point [ -4.4687 7.2305 0, -3.4302 7.2652 2.7751, -1.7151 6.2052 5.5501, 0 4.4687 7.2305, -6.2052 5.5501 1.7151, -4.4732 5.8555 4.2371, -2.1069 5.3784 6.2357, -7.2652 2.7751 3.4302, -5.2373 3.855 5.4735, -7.2305 0 4.4687, -1.7151 8.3252 0, 1.7151 8.3252 0, 4.4687 7.2305 0, -0.6182 8.2381 2.0005, 2.3293 8.1201 0.9422, 0.6182 7.474 4.001, -3.4302 7.2652 -2.7751, -1.7151 6.2052 -5.5501, 0 4.4687 -7.2305, -1.2364 7.856 -3.0007, -0.5823 6.3206 -5.6534, 1.2364 7.856 -3.0007, -6.2052 5.5501 -1.7151, -7.2652 2.7751 -3.4302, -7.2305 0 -4.4687, -5.4735 5.2373 -3.855, -6.818 2.4668 -4.4362, -4.2371 4.4732 -5.8555, -7.474 4.001 0.6182, -7.7602 1.8845 2.9116, -8.2381 2.0005 -0.6182, 6.2052 5.5501 1.7151, 7.2652 2.7751 3.4302, 7.2305 0 4.4687, 3.4302 7.2652 2.7751, 5.4735 5.2373 3.855, 6.818 2.4668 4.4362, 1.7151 6.2052 5.5501, 4.2371 4.4732 5.8555, 0 1.7151 8.3252, 0 -1.7151 8.3252, 0 -4.4687 7.2305, -2.7751 3.4302 7.2652, -2.0005 0.6182 8.2381, -0.9422 -2.3293 8.1201, -5.5501 1.7151 6.2052, -4.001 -0.6182 7.474, -7.2652 -2.7751 3.4302, -6.2052 -5.5501 1.7151, -4.4687 -7.2305 0, -8.3252 0 1.7151, -7.856 -3.0007 1.2364, -6.3206 -5.6534 0.5823, -8.3252 0 -1.7151, -7.856 -3.0007 -1.2364, -5.5501 -1.7151 -6.2052, -2.7751 -3.4302 -7.2652, 0 -4.4687 -7.2305, -5.5501 1.7151 -6.2052, -4.001 -0.6182 -7.474, -1.8845 -2.9116 -7.7602, -2.7751 3.4302 -7.2652, -2.0005 0.6182 -8.2381, 2.7751 3.4302 -7.2652, 5.5501 1.7151 -6.2052, 7.2305 0 -4.4687, 1.7151 6.2052 -5.5501, 4.2371 4.4732 -5.8555, 6.2357 2.1069 -5.3784, 3.4302 7.2652 -2.7751, 5.4735 5.2373 -3.855, 4.4687 -7.2305 0, 3.4302 -7.2652 2.7751, 1.7151 -6.2052 5.5501, 6.2052 -5.5501 1.7151, 4.4732 -5.8555 4.2371, 2.1069 -5.3784 6.2357, 7.2652 -2.7751 3.4302, 5.2373 -3.855 5.4735, 1.7151 -8.3252 0, -1.7151 -8.3252 0, 0.6182 -8.2381 2.0005, -2.3293 -8.1201 0.9422, -0.6182 -7.474 4.001, 3.4302 -7.2652 -2.7751, 1.7151 -6.2052 -5.5501, 1.2364 -7.856 -3.0007, 0.5823 -6.3206 -5.6534, -1.2364 -7.856 -3.0007, 6.2052 -5.5501 -1.7151, 7.2652 -2.7751 -3.4302, 5.4735 -5.2373 -3.855, 6.818 -2.4668 -4.4362, 4.2371 -4.4732 -5.8555, 7.474 -4.001 0.6182, 7.7602 -1.8845 2.9116, 8.2381 -2.0005 -0.6182, 2.7751 -3.4302 7.2652, 2.0005 -0.6182 8.2381, 0.9422 2.3293 8.1201, 5.5501 -1.7151 6.2052, 4.001 0.6182 7.474, -3.4302 -7.2652 2.7751, -5.4735 -5.2373 3.855, -6.818 -2.4668 4.4362, -1.7151 -6.2052 5.5501, -4.2371 -4.4732 5.8555, -1.7151 -6.2052 -5.5501, -4.2371 -4.4732 -5.8555, -6.2357 -2.1069 -5.3784, -3.4302 -7.2652 -2.7751, -5.4735 -5.2373 -3.855, 5.5501 -1.7151 -6.2052, 4.001 0.6182 -7.474, 1.8845 2.9116 -7.7602, 2.7751 -3.4302 -7.2652, 2.0005 -0.6182 -8.2381, 8.3252 0 1.7151, 7.856 3.0007 1.2364, 6.3206 5.6534 0.5823, 8.3252 0 -1.7151, 7.856 3.0007 -1.2364 ] }
        coordIndex [ 0 1 -1 0 4 -1 1 4 -1 1 2 -1 1 5 -1 2 5 -1 2 3 -1 2 6 -1 3 6 -1 4 5 -1 4 7 -1 5 7 -1 5 6 -1 5 8 -1 6 8 -1 7 8 -1 0 10 -1 1 10 -1 10 11 -1 10 13 -1 11 13 -1 11 12 -1 11 14 -1 12 14 -1 1 13 -1 2 13 -1 13 14 -1 13 15 -1 14 15 -1 2 15 -1 0 16 -1 10 16 -1 16 17 -1 16 19 -1 17 19 -1 17 18 -1 17 20 -1 18 20 -1 10 19 -1 11 19 -1 19 20 -1 19 21 -1 20 21 -1 11 21 -1 0 22 -1 16 22 -1 22 23 -1 22 25 -1 23 25 -1 23 24 -1 23 26 -1 24 26 -1 16 25 -1 17 25 -1 25 26 -1 25 27 -1 26 27 -1 17 27 -1 4 22 -1 4 28 -1 7 28 -1 7 9 -1 7 29 -1 9 29 -1 22 28 -1 23 28 -1 28 29 -1 28 30 -1 29 30 -1 23 30 -1 12 31 -1 12 34 -1 31 34 -1 31 32 -1 31 35 -1 32 35 -1 32 33 -1 32 36 -1 33 36 -1 34 35 -1 34 37 -1 35 37 -1 35 36 -1 35 38 -1 36 38 -1 37 38 -1 3 39 -1 3 42 -1 39 42 -1 39 43 -1 42 43 -1 42 45 -1 43 45 -1 9 50 -1 50 53 -1 24 58 -1 58 61 -1 61 62 -1 18 63 -1 18 66 -1 63 66 -1 63 64 -1 63 67 -1 64 67 -1 64 65 -1 64 68 -1 65 68 -1 66 67 -1 66 69 -1 67 69 -1 67 68 -1 67 70 -1 68 70 -1 69 70 -1 39 99 -1 3 99 -1 99 101 -1 64 113 -1 63 113 -1 63 114 -1 18 114 -1 113 114 -1 33 117 -1 32 117 -1 32 118 -1 31 118 -1 31 119 -1 12 119 -1 117 118 -1 117 120 -1 118 120 -1 118 119 -1 118 121 -1 119 121 -1 120 121 -1 ]
      }
    }
  ]
}

Transform { # ground grid
  translation 0 -2.6 0
  children Shape {
    appearance Appearance { material Material { emissiveColor 0.16 0.24 0.62 } }
    geometry IndexedLineSet {
      coord Coordinate { point [ -12 0 -12, -12 0 12, -12 0 -12, 12 0 -12, -11 0 -12, -11 0 12, -12 0 -11, 12 0 -11, -10 0 -12, -10 0 12, -12 0 -10, 12 0 -10, -9 0 -12, -9 0 12, -12 0 -9, 12 0 -9, -8 0 -12, -8 0 12, -12 0 -8, 12 0 -8, -7 0 -12, -7 0 12, -12 0 -7, 12 0 -7, -6 0 -12, -6 0 12, -12 0 -6, 12 0 -6, -5 0 -12, -5 0 12, -12 0 -5, 12 0 -5, -4 0 -12, -4 0 12, -12 0 -4, 12 0 -4, -3 0 -12, -3 0 12, -12 0 -3, 12 0 -3, -2 0 -12, -2 0 12, -12 0 -2, 12 0 -2, -1 0 -12, -1 0 12, -12 0 -1, 12 0 -1, 0 0 -12, 0 0 12, -12 0 0, 12 0 0, 1 0 -12, 1 0 12, -12 0 1, 12 0 1, 2 0 -12, 2 0 12, -12 0 2, 12 0 2, 3 0 -12, 3 0 12, -12 0 3, 12 0 3, 4 0 -12, 4 0 12, -12 0 4, 12 0 4, 5 0 -12, 5 0 12, -12 0 5, 12 0 5, 6 0 -12, 6 0 12, -12 0 6, 12 0 6, 7 0 -12, 7 0 12, -12 0 7, 12 0 7, 8 0 -12, 8 0 12, -12 0 8, 12 0 8, 9 0 -12, 9 0 12, -12 0 9, 12 0 9, 10 0 -12, 10 0 12, -12 0 10, 12 0 10, 11 0 -12, 11 0 12, -12 0 11, 12 0 11, 12 0 -12, 12 0 12, -12 0 12, 12 0 12 ] }
      coordIndex [ 0 1 -1 2 3 -1 4 5 -1 6 7 -1 8 9 -1 10 11 -1 12 13 -1 14 15 -1 16 17 -1 18 19 -1 20 21 -1 22 23 -1 24 25 -1 26 27 -1 28 29 -1 30 31 -1 32 33 -1 34 35 -1 36 37 -1 38 39 -1 40 41 -1 42 43 -1 44 45 -1 46 47 -1 48 49 -1 50 51 -1 52 53 -1 54 55 -1 56 57 -1 58 59 -1 60 61 -1 62 63 -1 64 65 -1 66 67 -1 68 69 -1 70 71 -1 72 73 -1 74 75 -1 76 77 -1 78 79 -1 80 81 -1 82 83 -1 84 85 -1 86 87 -1 88 89 -1 90 91 -1 92 93 -1 94 95 -1 96 97 -1 98 99 -1 ]
    }
  }
}

DEF Clock TimeSensor { cycleInterval 60 loop TRUE }
DEF Spin OrientationInterpolator { key [ 0 0.5 1 ] keyValue [ 0 1 0 0, 0 1 0 3.1416, 0 1 0 6.2832 ] }
ROUTE Clock.fraction_changed TO Spin.set_fraction
ROUTE Spin.value_changed TO Dome.set_rotation
